<svg version="1.1" id="Layer_1" xmlns="http://www.w3.org/2000/svg" xmlns:xlink="http://www.w3.org/1999/xlink" x="0px" y="0px"
	 width="100%" viewBox="0 0 854 881" enable-background="new 0 0 854 881" xml:space="preserve">
<path fill="#000000" opacity="1.000000" stroke="none" 
	d="
M500.000000,882.000000 
	C333.333374,882.000000 167.166763,882.000000 1.000112,882.000000 
	C1.000074,588.333496 1.000074,294.666931 1.000037,1.000309 
	C285.666443,1.000206 570.332886,1.000206 854.999512,1.000103 
	C854.999634,294.666351 854.999634,588.332703 854.999817,881.999512 
	C736.833313,882.000000 618.666687,882.000000 500.000000,882.000000 
M549.206848,328.752777 
	C546.413086,325.871368 543.619263,322.989990 540.814575,320.149353 
	C540.814575,320.149353 540.882812,320.166199 540.204163,319.724152 
	C534.946045,318.079620 532.407593,313.219116 528.529846,309.926544 
	C528.529846,309.926544 528.473816,309.931030 527.857971,309.364929 
	C523.892822,307.116058 519.927673,304.867188 515.799988,302.417236 
	C515.644897,302.248077 515.542358,302.109131 514.437317,301.901093 
	C506.625397,297.936951 499.076935,293.295380 490.952118,290.135925 
	C466.719971,280.712799 441.751617,275.812347 415.459991,277.791565 
	C401.171997,278.867218 387.361084,281.480469 373.765076,285.594849 
	C357.194702,290.609344 342.510620,299.597076 326.923706,308.337128 
	C324.971100,309.526306 323.018494,310.715515 320.225281,312.385010 
	C318.460541,314.271790 316.743378,316.205872 314.922485,318.036835 
	C308.532501,324.462219 301.753693,330.544983 295.821472,337.365753 
	C292.002136,341.757172 289.036682,347.021088 286.335236,352.229340 
	C279.585541,365.242249 272.003632,378.011078 267.038879,391.705597 
	C262.717133,403.626556 261.182953,416.622314 259.025604,429.247131 
	C256.459167,444.266113 257.582489,459.395966 260.299652,474.240356 
	C264.163452,495.348694 271.027771,515.627930 283.043335,533.527161 
	C290.826721,545.121826 299.886017,555.953491 309.192566,566.397278 
	C314.821899,572.714539 322.016693,577.636841 328.344208,583.477173 
	C328.241638,583.673828 328.148773,583.874939 328.442749,584.767883 
	C331.244263,586.001465 334.132782,587.071777 336.826385,588.507751 
	C340.612366,590.526123 344.149567,593.021667 347.974152,594.955078 
	C367.459442,604.805420 387.955750,610.981812 409.800659,613.195801 
	C425.137878,614.750183 440.371674,614.454163 455.319000,611.590027 
	C486.443726,605.626160 504.658295,596.783508 529.845947,578.165955 
	C535.861511,573.719543 541.033752,568.530640 546.213135,563.274292 
	C557.409851,551.911194 566.953796,539.273499 574.376038,525.150513 
	C592.026550,491.565247 597.583496,456.061584 592.231384,418.439362 
	C588.328979,391.007507 575.695618,367.431305 562.002869,344.208893 
	C559.490417,339.947845 554.634949,337.122375 552.813721,332.148346 
	C552.813721,332.148346 552.882019,332.165192 552.173035,331.661530 
	C551.389954,330.810608 550.606934,329.959686 549.813049,329.149536 
	C549.813049,329.149536 549.881409,329.166504 549.206848,328.752777 
M723.815063,156.148254 
	C723.815063,156.148254 723.883301,156.165039 723.249756,155.747971 
	C714.110046,147.205826 704.970398,138.663666 695.819580,130.162582 
	C695.819580,130.162582 695.889282,130.179749 695.286255,129.807205 
	C689.837524,125.723801 684.388794,121.640388 678.813477,117.249313 
	C678.642273,116.750481 678.471069,116.251656 677.474365,115.450790 
	C676.316895,115.115425 674.902954,115.086815 674.056519,114.379303 
	C672.412598,113.005104 671.327332,110.890724 669.582214,109.723488 
	C665.348999,106.891998 660.870117,104.427750 656.654480,101.523605 
	C656.757263,101.326553 656.850464,101.125023 656.556824,100.230782 
	C655.403687,99.759933 654.123474,99.472992 653.122559,98.781731 
	C650.690857,97.102402 648.388977,95.235184 645.973938,93.459877 
	C645.973938,93.459877 646.035217,93.554016 645.479980,93.030647 
	C642.642151,91.867157 639.691772,90.917633 636.989624,89.496201 
	C631.142395,86.420319 625.488464,82.976700 619.639160,79.904968 
	C588.396667,63.498196 555.794983,50.433964 521.194519,43.378246 
	C498.957123,38.843609 476.390869,35.198605 453.792938,33.380276 
	C435.159943,31.880980 416.221375,32.984344 397.497559,34.178482 
	C381.906525,35.172829 366.337372,37.432987 350.923737,40.090675 
	C320.588531,45.321220 291.461670,54.753166 263.178101,66.874313 
	C259.338318,68.519905 257.863525,70.586258 257.880859,74.974358 
	C258.068390,122.454178 257.997559,169.935013 257.999451,217.415573 
	C257.999512,218.581528 257.900757,219.767365 258.083527,220.906158 
	C258.197968,221.619080 258.607117,222.600937 259.153961,222.837036 
	C259.673706,223.061432 260.688019,222.651825 261.236847,222.211731 
	C264.137207,219.886124 266.780304,217.200058 269.838501,215.117615 
	C285.445129,204.490524 302.049133,195.703720 319.387146,188.211090 
	C347.087708,176.240326 376.094513,169.217422 406.038757,167.269623 
	C429.326843,165.754776 452.727112,166.707336 475.865570,170.979294 
	C504.847961,176.330246 532.283813,185.987091 558.272705,199.793777 
	C560.405640,200.926895 561.829224,203.366257 563.938477,204.579987 
	C566.603088,206.113251 569.633179,207.011322 572.343506,208.476151 
	C572.242065,208.673630 572.150208,208.875488 572.447021,209.767624 
	C576.467041,211.906982 580.487000,214.046341 584.343567,216.477097 
	C584.241211,216.673752 584.148560,216.874863 584.442505,217.769806 
	C587.101990,218.906113 590.112366,219.572235 592.365295,221.253357 
	C609.897156,234.335541 626.151978,248.911636 640.072876,265.784515 
	C658.986511,288.708923 674.244324,313.913910 685.307983,341.618896 
	C696.606079,369.910980 703.083923,399.299652 704.845154,429.597931 
	C706.232544,453.464081 704.669678,477.331482 699.800903,500.786041 
	C693.450256,531.378906 682.849915,560.432190 666.437439,587.190308 
	C664.422729,590.475098 662.521790,593.834045 660.401672,597.048767 
	C657.056213,602.121338 653.691772,607.190674 650.091736,612.082153 
	C648.253662,614.579651 645.892395,616.693481 643.756042,618.969971 
	C640.230042,622.727234 638.628357,628.314392 633.146545,630.184204 
	C633.146545,630.184204 633.163696,630.116882 632.798645,630.711182 
	C630.907043,633.591492 629.482605,636.977539 627.026062,639.246033 
	C622.014221,643.874268 616.446533,647.900635 611.148499,652.185974 
	C611.148499,652.185974 611.164734,652.117126 610.747559,652.757507 
	C609.349854,654.717651 608.294495,657.115784 606.475708,658.537231 
	C603.618958,660.770020 600.247620,662.344543 597.135925,664.208313 
	C597.135925,664.208313 597.153809,664.139832 596.635620,664.713928 
	C595.939880,665.152649 595.190125,665.524902 594.556885,666.040527 
	C588.701050,670.808044 583.142639,676.005188 576.935547,680.256653 
	C572.022156,683.622070 566.319885,685.835815 561.027893,688.544067 
	C561.027893,688.544067 560.965759,688.448181 561.099609,689.105530 
	C558.682312,690.752625 556.410034,692.684814 553.824158,694.000610 
	C536.880981,702.622192 519.174744,709.256409 500.907318,714.542664 
	C478.414307,721.051758 455.418549,724.045776 432.123688,724.901611 
	C424.365753,725.186646 416.503693,724.848267 408.798828,723.902283 
	C393.288452,721.997986 377.667480,720.337402 362.427429,717.030884 
	C334.209442,710.908569 307.603424,700.191467 283.067780,684.866943 
	C275.082703,679.879578 267.934509,673.552185 260.348053,667.855225 
	C260.348053,667.855225 260.176666,667.605042 259.436005,667.380005 
	C258.604126,667.105469 257.772247,666.830994 256.813904,666.249390 
	C256.643951,665.752075 256.473999,665.254700 255.481430,664.447998 
	C254.315826,664.117310 252.805923,664.141479 252.040222,663.398621 
	C246.880707,658.392578 241.878983,653.223999 236.815201,648.148682 
	C236.815201,648.148682 236.883530,648.165466 235.976776,647.466736 
	C234.702957,646.645386 233.429138,645.824036 231.970490,645.008057 
	C231.718658,645.011536 231.466888,645.008545 231.252426,643.811584 
	C231.202942,643.418640 231.153458,643.025696 231.069122,642.669739 
	C231.069122,642.669739 231.174820,642.781921 230.522598,642.029785 
	C229.625015,641.055969 228.727417,640.082153 227.817535,639.148804 
	C227.817535,639.148804 227.887329,639.163147 227.177719,638.659851 
	C226.394135,637.808960 225.610565,636.958008 224.815887,636.147827 
	C224.815887,636.147827 224.884232,636.164429 224.175140,635.660522 
	C223.391922,634.809326 222.608704,633.958191 221.814438,633.147705 
	C221.814438,633.147705 221.882751,633.164490 221.222504,632.761475 
	C216.721359,632.190063 216.561432,627.989563 214.813324,625.148438 
	C214.813324,625.148438 214.881577,625.165283 214.232544,624.767456 
	C212.921799,623.914246 211.249268,623.329590 210.375107,622.152222 
	C208.513153,619.644470 207.320267,616.627869 205.390686,614.185120 
	C202.230728,610.184937 198.274628,606.769592 195.404480,602.592224 
	C184.055862,586.074829 174.488571,568.570679 166.962387,549.952332 
	C154.321487,518.681213 147.290253,486.132721 147.151535,452.502991 
	C146.739258,352.548523 147.003006,252.591232 147.002533,152.635056 
	C147.002533,150.489929 147.002548,148.344803 147.002548,145.622284 
	C145.130707,145.931061 143.155869,145.654251 142.227493,146.511185 
	C137.458344,150.913284 131.771027,154.956055 128.774033,160.423309 
	C126.714233,164.180862 124.540245,166.437225 121.149361,168.184982 
	C121.149361,168.184982 121.166176,168.116653 120.774414,168.726303 
	C119.431778,170.980621 118.371254,173.479736 116.678612,175.430344 
	C114.302643,178.168396 111.100822,180.223587 108.899757,183.071350 
	C105.982903,186.845200 103.934380,191.284973 101.065804,195.102783 
	C97.865097,199.362610 93.717682,202.949936 90.786018,207.363785 
	C86.556267,213.731995 83.040382,220.575302 79.238472,227.226501 
	C74.158333,236.113876 68.799858,244.857544 64.083313,253.934372 
	C51.489048,278.171631 41.603527,303.511627 34.134438,329.788269 
	C25.892609,358.783417 20.579628,388.383636 19.248352,418.424377 
	C18.059969,445.240692 18.627766,472.113312 22.795744,498.844208 
	C26.336697,521.553650 30.735920,544.018738 38.156376,565.750244 
	C44.434292,584.135742 46.330418,602.755554 43.966549,621.939270 
	C42.574368,633.237244 41.226826,644.542358 40.026360,655.861938 
	C38.858906,666.870117 37.968449,677.907410 36.839561,688.919983 
	C35.627995,700.738953 34.255363,712.541382 33.001308,724.356079 
	C32.234146,731.583740 31.632799,738.829407 30.823269,746.052002 
	C29.611082,756.867004 28.236853,767.663818 27.013525,778.477600 
	C25.678268,790.280945 24.351896,802.086426 23.188496,813.907410 
	C22.579596,820.094238 22.328352,826.316284 21.892536,832.869019 
	C30.656786,832.214661 38.533375,831.524353 46.423210,831.058167 
	C64.611313,829.983643 82.806267,829.025452 100.997635,828.005493 
	C112.404655,827.365967 123.808929,826.676697 135.216721,826.051575 
	C154.074249,825.018311 172.930923,823.964966 191.793335,823.028015 
	C201.239044,822.558716 210.698685,822.377258 220.147964,821.970947 
	C226.270569,821.707642 232.447906,821.701538 238.491272,820.825195 
	C250.647766,819.062683 262.688873,819.527893 274.412048,822.820068 
	C289.816559,827.145935 304.946442,832.441040 320.312073,836.915405 
	C348.324799,845.072571 377.072632,849.550903 406.118805,850.769653 
	C432.778137,851.888367 459.479370,851.334167 486.047821,847.203552 
	C507.125732,843.926575 527.897156,839.612549 548.253418,833.346191 
	C577.891968,824.222473 606.279785,812.174072 633.091187,796.494995 
	C638.249023,793.478699 643.647705,790.874207 648.801392,787.778198 
	C648.706116,787.577637 648.598022,787.384338 648.916260,786.712219 
	C654.801453,782.283813 661.893982,779.522278 667.092163,774.222839 
	C671.627930,769.598511 677.442688,766.854614 682.338196,762.656189 
	C698.781067,748.554749 715.436218,734.730469 729.382568,718.053589 
	C740.817566,704.379822 752.464111,690.830139 763.046204,676.508179 
	C779.202881,654.641541 792.242371,630.839722 802.939575,605.854980 
	C808.455322,592.972351 813.870178,579.922485 817.742126,566.490295 
	C823.075500,547.988342 827.690796,529.196228 831.143005,510.260254 
	C834.154480,493.741486 836.246155,476.882660 836.715088,460.117310 
	C837.275635,440.077698 836.455933,419.912231 834.771851,399.924500 
	C833.405884,383.712311 830.465515,367.561218 827.173462,351.599609 
	C822.132690,327.159271 814.687439,303.355103 804.236450,280.654785 
	C797.337891,265.670593 789.977600,250.858810 782.003906,236.422852 
	C775.882324,225.340027 768.471497,214.970123 761.652527,204.271362 
	C759.123108,200.302750 756.699890,196.265472 754.122681,192.328613 
	C752.862671,190.403778 751.476746,188.533173 749.941162,186.823669 
	C747.736755,184.369720 745.122681,182.260391 743.083496,179.687027 
	C740.142822,175.975967 737.561035,171.980576 734.814941,168.147217 
	C734.814941,168.147217 734.883118,168.163971 734.219849,167.758972 
	C729.471313,166.825790 728.487488,162.677734 726.817749,159.145538 
	C726.817749,159.145538 726.886292,159.160736 726.177551,158.657013 
	C725.393738,157.807175 724.609863,156.957336 723.815063,156.148254 
z"/>
<path fill="#301C8B" opacity="1.000000" stroke="none" 
	d="
M648.935364,788.079834 
	C643.647705,790.874207 638.249023,793.478699 633.091187,796.494995 
	C606.279785,812.174072 577.891968,824.222473 548.253418,833.346191 
	C527.897156,839.612549 507.125732,843.926575 486.047821,847.203552 
	C459.479370,851.334167 432.778137,851.888367 406.118805,850.769653 
	C377.072632,849.550903 348.324799,845.072571 320.312073,836.915405 
	C304.946442,832.441040 289.816559,827.145935 274.412048,822.820068 
	C262.688873,819.527893 250.647766,819.062683 238.491272,820.825195 
	C232.447906,821.701538 226.270569,821.707642 220.147964,821.970947 
	C210.698685,822.377258 201.239044,822.558716 191.793335,823.028015 
	C172.930923,823.964966 154.074249,825.018311 135.216721,826.051575 
	C123.808929,826.676697 112.404655,827.365967 100.997635,828.005493 
	C82.806267,829.025452 64.611313,829.983643 46.423210,831.058167 
	C38.533375,831.524353 30.656786,832.214661 21.892536,832.869019 
	C22.328352,826.316284 22.579596,820.094238 23.188496,813.907410 
	C24.351896,802.086426 25.678268,790.280945 27.013525,778.477600 
	C28.236853,767.663818 29.611082,756.867004 30.823269,746.052002 
	C31.632799,738.829407 32.234146,731.583740 33.001308,724.356079 
	C34.255363,712.541382 35.627995,700.738953 36.839561,688.919983 
	C37.968449,677.907410 38.858906,666.870117 40.026360,655.861938 
	C41.226826,644.542358 42.574368,633.237244 43.966549,621.939270 
	C46.330418,602.755554 44.434292,584.135742 38.156376,565.750244 
	C30.735920,544.018738 26.336697,521.553650 22.795744,498.844208 
	C18.627766,472.113312 18.059969,445.240692 19.248352,418.424377 
	C20.579628,388.383636 25.892609,358.783417 34.134438,329.788269 
	C41.603527,303.511627 51.489048,278.171631 64.083313,253.934372 
	C68.799858,244.857544 74.158333,236.113876 79.238472,227.226501 
	C83.040382,220.575302 86.556267,213.731995 90.786018,207.363785 
	C93.717682,202.949936 97.865097,199.362610 101.065804,195.102783 
	C103.934380,191.284973 105.982903,186.845200 108.899757,183.071350 
	C111.100822,180.223587 114.302643,178.168396 116.678612,175.430344 
	C118.371254,173.479736 119.431778,170.980621 121.122498,168.426544 
	C121.501518,168.345871 121.532455,168.564941 121.563400,168.784027 
	C121.411804,168.580688 121.260208,168.377350 121.108604,168.174011 
	C124.540245,166.437225 126.714233,164.180862 128.774033,160.423309 
	C131.771027,154.956055 137.458344,150.913284 142.227493,146.511185 
	C143.155869,145.654251 145.130707,145.931061 147.002548,145.622284 
	C147.002548,148.344803 147.002533,150.489929 147.002533,152.635056 
	C147.003006,252.591232 146.739258,352.548523 147.151535,452.502991 
	C147.290253,486.132721 154.321487,518.681213 166.962387,549.952332 
	C174.488571,568.570679 184.055862,586.074829 195.404480,602.592224 
	C198.274628,606.769592 202.230728,610.184937 205.390686,614.185120 
	C207.320267,616.627869 208.513153,619.644470 210.375107,622.152222 
	C211.249268,623.329590 212.921799,623.914246 214.552246,625.118591 
	C214.653320,625.500854 214.434692,625.532043 214.216049,625.563110 
	C214.418762,625.411255 214.621490,625.259399 214.824219,625.107544 
	C216.561432,627.989563 216.721359,632.190063 221.547913,633.115601 
	C221.653992,633.500916 221.434692,633.532104 221.215378,633.563293 
	C221.418747,633.411194 221.622101,633.259094 221.825470,633.106995 
	C222.608704,633.958191 223.391922,634.809326 224.524963,636.065430 
	C224.654755,636.501465 224.434708,636.532654 224.214661,636.563782 
	C224.418793,636.411560 224.622910,636.259338 224.826996,636.107117 
	C225.610565,636.958008 226.394135,637.808960 227.527618,639.067505 
	C227.653610,639.505310 227.429718,639.535461 227.205826,639.565674 
	C227.413834,639.413208 227.621841,639.260803 227.829834,639.108398 
	C228.727417,640.082153 229.625015,641.055969 230.733765,642.443420 
	C230.861343,642.726135 230.777771,642.595276 230.694199,642.464355 
	C230.830795,642.520508 230.967377,642.576599 231.103973,642.632751 
	C231.153458,643.025696 231.202942,643.418640 231.238098,644.627563 
	C231.644745,645.528992 232.065735,645.614441 232.486740,645.699829 
	C232.376266,645.467468 232.265778,645.235107 232.155304,645.002686 
	C233.429138,645.824036 234.702957,646.645386 236.425262,647.968567 
	C236.654327,648.501465 236.434906,648.532532 236.215485,648.563599 
	C236.419037,648.411682 236.622604,648.259827 236.826187,648.107971 
	C241.878983,653.223999 246.880707,658.392578 252.040222,663.398621 
	C252.805923,664.141479 254.315826,664.117310 256.016937,664.826782 
	C256.681763,665.655945 256.811066,666.106201 256.940338,666.556519 
	C257.772247,666.830994 258.604126,667.105469 259.799957,667.562622 
	C260.163910,667.745239 260.403564,667.837708 260.403564,667.837708 
	C267.934509,673.552185 275.082703,679.879578 283.067780,684.866943 
	C307.603424,700.191467 334.209442,710.908569 362.427429,717.030884 
	C377.667480,720.337402 393.288452,721.997986 408.798828,723.902283 
	C416.503693,724.848267 424.365753,725.186646 432.123688,724.901611 
	C455.418549,724.045776 478.414307,721.051758 500.907318,714.542664 
	C519.174744,709.256409 536.880981,702.622192 553.824158,694.000610 
	C556.410034,692.684814 558.682312,690.752625 561.181519,688.692871 
	C561.400146,688.398743 561.536926,688.517151 561.673767,688.635559 
	C561.438477,688.610657 561.203125,688.585815 560.967834,688.560913 
	C566.319885,685.835815 572.022156,683.622070 576.935547,680.256653 
	C583.142639,676.005188 588.701050,670.808044 594.556885,666.040527 
	C595.190125,665.524902 595.939880,665.152649 597.049072,664.427673 
	C597.495361,664.356812 597.528137,664.572205 597.560913,664.787598 
	C597.405334,664.591003 597.249817,664.394470 597.094238,664.197876 
	C600.247620,662.344543 603.618958,660.770020 606.475708,658.537231 
	C608.294495,657.115784 609.349854,654.717651 611.108887,652.442810 
	C611.500183,652.346924 611.530090,652.565796 611.560059,652.784607 
	C611.409363,652.581360 611.258606,652.378174 611.107849,652.174927 
	C616.446533,647.900635 622.014221,643.874268 627.026062,639.246033 
	C629.482605,636.977539 630.907043,633.591492 633.133423,630.417969 
	C633.501221,630.344604 633.534180,630.564453 633.567139,630.784363 
	C633.413391,630.580627 633.259583,630.376953 633.105774,630.173218 
	C638.628357,628.314392 640.230042,622.727234 643.756042,618.969971 
	C645.892395,616.693481 648.253662,614.579651 650.091736,612.082153 
	C653.691772,607.190674 657.056213,602.121338 660.401672,597.048767 
	C662.521790,593.834045 664.422729,590.475098 666.437439,587.190308 
	C682.849915,560.432190 693.450256,531.378906 699.800903,500.786041 
	C704.669678,477.331482 706.232544,453.464081 704.845154,429.597931 
	C703.083923,399.299652 696.606079,369.910980 685.307983,341.618896 
	C674.244324,313.913910 658.986511,288.708923 640.072876,265.784515 
	C626.151978,248.911636 609.897156,234.335541 592.365295,221.253357 
	C590.112366,219.572235 587.101990,218.906113 584.435425,217.429382 
	C584.640686,217.033081 584.853027,216.977203 585.065308,216.921326 
	C584.879211,216.676117 584.693115,216.430893 584.507019,216.185699 
	C580.487000,214.046341 576.467041,211.906982 572.442505,209.430328 
	C572.594421,209.135742 572.750854,209.178452 572.907349,209.221161 
	C572.773438,208.875244 572.639526,208.529312 572.505615,208.183395 
	C569.633179,207.011322 566.603088,206.113251 563.938477,204.579987 
	C561.829224,203.366257 560.405640,200.926895 558.272705,199.793777 
	C532.283813,185.987091 504.847961,176.330246 475.865570,170.979294 
	C452.727112,166.707336 429.326843,165.754776 406.038757,167.269623 
	C376.094513,169.217422 347.087708,176.240326 319.387146,188.211090 
	C302.049133,195.703720 285.445129,204.490524 269.838501,215.117615 
	C266.780304,217.200058 264.137207,219.886124 261.236847,222.211731 
	C260.688019,222.651825 259.673706,223.061432 259.153961,222.837036 
	C258.607117,222.600937 258.197968,221.619080 258.083527,220.906158 
	C257.900757,219.767365 257.999512,218.581528 257.999451,217.415573 
	C257.997559,169.935013 258.068390,122.454178 257.880859,74.974358 
	C257.863525,70.586258 259.338318,68.519905 263.178101,66.874313 
	C291.461670,54.753166 320.588531,45.321220 350.923737,40.090675 
	C366.337372,37.432987 381.906525,35.172829 397.497559,34.178482 
	C416.221375,32.984344 435.159943,31.880980 453.792938,33.380276 
	C476.390869,35.198605 498.957123,38.843609 521.194519,43.378246 
	C555.794983,50.433964 588.396667,63.498196 619.639160,79.904968 
	C625.488464,82.976700 631.142395,86.420319 636.989624,89.496201 
	C639.691772,90.917633 642.642151,91.867157 645.608154,93.376678 
	C645.599609,93.602516 645.462891,93.482330 645.326233,93.362137 
	C645.562439,93.389305 645.798584,93.416481 646.034790,93.443665 
	C648.388977,95.235184 650.690857,97.102402 653.122559,98.781731 
	C654.123474,99.472992 655.403687,99.759933 656.562256,100.570190 
	C656.353149,100.963715 656.138672,101.017830 655.924194,101.071945 
	C656.112854,101.319809 656.301575,101.567673 656.490234,101.815536 
	C660.870117,104.427750 665.348999,106.891998 669.582214,109.723488 
	C671.327332,110.890724 672.412598,113.005104 674.056519,114.379303 
	C674.902954,115.086815 676.316895,115.115425 678.010864,115.827454 
	C678.678223,116.655067 678.809143,117.106026 678.940063,117.556976 
	C684.388794,121.640388 689.837524,125.723801 695.580811,130.143890 
	C695.657410,130.508575 695.439514,130.536560 695.221558,130.564514 
	C695.424561,130.416840 695.627625,130.269165 695.830688,130.121490 
	C704.970398,138.663666 714.110046,147.205826 723.561646,156.109039 
	C723.654236,156.501221 723.434814,156.532318 723.215454,156.563416 
	C723.418945,156.411423 723.622498,156.259460 723.826050,156.107483 
	C724.609863,156.957336 725.393738,157.807175 726.528198,159.064941 
	C726.654419,159.504623 726.430115,159.536392 726.205750,159.568161 
	C726.413757,159.413788 726.621826,159.259430 726.829834,159.105057 
	C728.487488,162.677734 729.471313,166.825790 734.546875,168.114349 
	C734.654175,168.500961 734.434509,168.532181 734.214783,168.563416 
	C734.418518,168.411102 734.622314,168.258804 734.826050,168.106506 
	C737.561035,171.980576 740.142822,175.975967 743.083496,179.687027 
	C745.122681,182.260391 747.736755,184.369720 749.941162,186.823669 
	C751.476746,188.533173 752.862671,190.403778 754.122681,192.328613 
	C756.699890,196.265472 759.123108,200.302750 761.652527,204.271362 
	C768.471497,214.970123 775.882324,225.340027 782.003906,236.422852 
	C789.977600,250.858810 797.337891,265.670593 804.236450,280.654785 
	C814.687439,303.355103 822.132690,327.159271 827.173462,351.599609 
	C830.465515,367.561218 833.405884,383.712311 834.771851,399.924500 
	C836.455933,419.912231 837.275635,440.077698 836.715088,460.117310 
	C836.246155,476.882660 834.154480,493.741486 831.143005,510.260254 
	C827.690796,529.196228 823.075500,547.988342 817.742126,566.490295 
	C813.870178,579.922485 808.455322,592.972351 802.939575,605.854980 
	C792.242371,630.839722 779.202881,654.641541 763.046204,676.508179 
	C752.464111,690.830139 740.817566,704.379822 729.382568,718.053589 
	C715.436218,734.730469 698.781067,748.554749 682.338196,762.656189 
	C677.442688,766.854614 671.627930,769.598511 667.092163,774.222839 
	C661.893982,779.522278 654.801453,782.283813 648.565186,787.058472 
	C648.454529,787.629822 648.694946,787.854858 648.935364,788.079834 
z"/>
<path fill="#301C8B" opacity="1.000000" stroke="none" 
	d="
M328.508118,583.185852 
	C322.016693,577.636841 314.821899,572.714539 309.192566,566.397278 
	C299.886017,555.953491 290.826721,545.121826 283.043335,533.527161 
	C271.027771,515.627930 264.163452,495.348694 260.299652,474.240356 
	C257.582489,459.395966 256.459167,444.266113 259.025604,429.247131 
	C261.182953,416.622314 262.717133,403.626556 267.038879,391.705597 
	C272.003632,378.011078 279.585541,365.242249 286.335236,352.229340 
	C289.036682,347.021088 292.002136,341.757172 295.821472,337.365753 
	C301.753693,330.544983 308.532501,324.462219 314.922485,318.036835 
	C316.743378,316.205872 318.460541,314.271790 320.596313,312.464111 
	C320.871063,312.830811 320.752380,313.114044 320.694336,313.409210 
	C320.679932,313.482697 320.934937,313.682739 320.942322,313.676544 
	C323.167694,311.815735 325.382202,309.941895 327.596954,308.068359 
	C342.510620,299.597076 357.194702,290.609344 373.765076,285.594849 
	C387.361084,281.480469 401.171997,278.867218 415.459991,277.791565 
	C441.751617,275.812347 466.719971,280.712799 490.952118,290.135925 
	C499.076935,293.295380 506.625397,297.936951 514.806091,301.854126 
	C515.437439,302.077576 515.699951,302.347961 515.962524,302.618317 
	C519.927673,304.867188 523.892822,307.116058 527.973145,309.638794 
	C527.837585,310.002808 527.586792,310.093018 527.335999,310.183197 
	C527.748901,310.085175 528.161865,309.987213 528.574768,309.889221 
	C532.407593,313.219116 534.946045,318.079620 540.538452,320.097351 
	C540.653870,320.501434 540.434937,320.532349 540.216064,320.563232 
	C540.419189,320.411682 540.622314,320.260101 540.825500,320.108582 
	C543.619263,322.989990 546.413086,325.871368 549.539062,329.111542 
	C549.653015,329.501190 549.434814,329.532074 549.216553,329.562927 
	C549.419006,329.411499 549.621460,329.260101 549.823914,329.108704 
	C550.606934,329.959686 551.389954,330.810608 552.522705,332.065674 
	C552.653503,332.500916 552.434692,332.532013 552.215881,332.563110 
	C552.418823,332.411285 552.621765,332.259430 552.824646,332.107605 
	C554.634949,337.122375 559.490417,339.947845 562.002869,344.208893 
	C575.695618,367.431305 588.328979,391.007507 592.231384,418.439362 
	C597.583496,456.061584 592.026550,491.565247 574.376038,525.150513 
	C566.953796,539.273499 557.409851,551.911194 546.213135,563.274292 
	C541.033752,568.530640 535.861511,573.719543 529.845947,578.165955 
	C504.658295,596.783508 486.443726,605.626160 455.319000,611.590027 
	C440.371674,614.454163 425.137878,614.750183 409.800659,613.195801 
	C387.955750,610.981812 367.459442,604.805420 347.974152,594.955078 
	C344.149567,593.021667 340.612366,590.526123 336.826385,588.507751 
	C334.132782,587.071777 331.244263,586.001465 328.436462,584.428711 
	C328.643280,584.034729 328.856354,583.979919 329.069427,583.925171 
	C328.882324,583.678711 328.695221,583.432312 328.508118,583.185852 
z"/>
<path fill="#000000" opacity="1.000000" stroke="none" 
	d="
M327.260315,308.202759 
	C325.382202,309.941895 323.167694,311.815735 320.942322,313.676544 
	C320.934937,313.682739 320.679932,313.482697 320.694336,313.409210 
	C320.752380,313.114044 320.871063,312.830811 321.016602,312.223938 
	C323.018494,310.715515 324.971100,309.526306 327.260315,308.202759 
z"/>
<path fill="#000000" opacity="1.000000" stroke="none" 
	d="
M528.552307,309.907898 
	C528.161865,309.987213 527.748901,310.085175 527.335999,310.183197 
	C527.586792,310.093018 527.837585,310.002808 528.281128,309.921814 
	C528.473816,309.931030 528.529846,309.926544 528.552307,309.907898 
z"/>
<path fill="#000000" opacity="1.000000" stroke="none" 
	d="
M232.062897,645.005371 
	C232.265778,645.235107 232.376266,645.467468 232.486740,645.699829 
	C232.065735,645.614441 231.644745,645.528992 231.219467,645.221313 
	C231.466888,645.008545 231.718658,645.011536 232.062897,645.005371 
z"/>
<path fill="#000000" opacity="1.000000" stroke="none" 
	d="
M611.128174,652.180420 
	C611.258606,652.378174 611.409363,652.581360 611.560059,652.784607 
	C611.530090,652.565796 611.500183,652.346924 611.317505,652.122620 
	C611.164734,652.117126 611.148499,652.185974 611.128174,652.180420 
z"/>
<path fill="#000000" opacity="1.000000" stroke="none" 
	d="
M236.820694,648.128296 
	C236.622604,648.259827 236.419037,648.411682 236.215485,648.563599 
	C236.434906,648.532532 236.654327,648.501465 236.878632,648.317932 
	C236.883530,648.165466 236.815201,648.148682 236.820694,648.128296 
z"/>
<path fill="#000000" opacity="1.000000" stroke="none" 
	d="
M256.877136,666.402954 
	C256.811066,666.106201 256.681763,665.655945 256.428253,664.981506 
	C256.473999,665.254700 256.643951,665.752075 256.877136,666.402954 
z"/>
<path fill="#000000" opacity="1.000000" stroke="none" 
	d="
M552.819214,332.127991 
	C552.621765,332.259430 552.418823,332.411285 552.215881,332.563110 
	C552.434692,332.532013 552.653503,332.500916 552.877197,332.317505 
	C552.882019,332.165192 552.813721,332.148346 552.819214,332.127991 
z"/>
<path fill="#000000" opacity="1.000000" stroke="none" 
	d="
M231.086548,642.651245 
	C230.967377,642.576599 230.830795,642.520508 230.694199,642.464355 
	C230.777771,642.595276 230.861343,642.726135 231.059875,642.819458 
	C231.174820,642.781921 231.069122,642.669739 231.086548,642.651245 
z"/>
<path fill="#000000" opacity="1.000000" stroke="none" 
	d="
M227.823700,639.128601 
	C227.621841,639.260803 227.413834,639.413208 227.205826,639.565674 
	C227.429718,639.535461 227.653610,639.505310 227.882416,639.319214 
	C227.887329,639.163147 227.817535,639.148804 227.823700,639.128601 
z"/>
<path fill="#000000" opacity="1.000000" stroke="none" 
	d="
M597.115112,664.203125 
	C597.249817,664.394470 597.405334,664.591003 597.560913,664.787598 
	C597.528137,664.572205 597.495361,664.356812 597.308228,664.140625 
	C597.153809,664.139832 597.135925,664.208313 597.115112,664.203125 
z"/>
<path fill="#000000" opacity="1.000000" stroke="none" 
	d="
M260.375793,667.846436 
	C260.403564,667.837708 260.163910,667.745239 260.170288,667.675171 
	C260.176666,667.605042 260.348053,667.855225 260.375793,667.846436 
z"/>
<path fill="#000000" opacity="1.000000" stroke="none" 
	d="
M224.821442,636.127441 
	C224.622910,636.259338 224.418793,636.411560 224.214661,636.563782 
	C224.434708,636.532654 224.654755,636.501465 224.879517,636.317383 
	C224.884232,636.164429 224.815887,636.147827 224.821442,636.127441 
z"/>
<path fill="#000000" opacity="1.000000" stroke="none" 
	d="
M221.819946,633.127319 
	C221.622101,633.259094 221.418747,633.411194 221.215378,633.563293 
	C221.434692,633.532104 221.653992,633.500916 221.878021,633.317139 
	C221.882751,633.164490 221.814438,633.147705 221.819946,633.127319 
z"/>
<path fill="#000000" opacity="1.000000" stroke="none" 
	d="
M560.997864,688.552490 
	C561.203125,688.585815 561.438477,688.610657 561.673767,688.635559 
	C561.536926,688.517151 561.400146,688.398743 561.114563,688.364258 
	C560.965759,688.448181 561.027893,688.544067 560.997864,688.552490 
z"/>
<path fill="#000000" opacity="1.000000" stroke="none" 
	d="
M648.868408,787.929016 
	C648.694946,787.854858 648.454529,787.629822 648.345581,787.301514 
	C648.598022,787.384338 648.706116,787.577637 648.868408,787.929016 
z"/>
<path fill="#000000" opacity="1.000000" stroke="none" 
	d="
M633.126160,630.178711 
	C633.259583,630.376953 633.413391,630.580627 633.567139,630.784363 
	C633.534180,630.564453 633.501221,630.344604 633.315979,630.120789 
	C633.163696,630.116882 633.146545,630.184204 633.126160,630.178711 
z"/>
<path fill="#000000" opacity="1.000000" stroke="none" 
	d="
M214.818756,625.127991 
	C214.621490,625.259399 214.418762,625.411255 214.216049,625.563110 
	C214.434692,625.532043 214.653320,625.500854 214.876770,625.317505 
	C214.881577,625.165283 214.813324,625.148438 214.818756,625.127991 
z"/>
<path fill="#000000" opacity="1.000000" stroke="none" 
	d="
M328.426147,583.331543 
	C328.695221,583.432312 328.882324,583.678711 329.069427,583.925171 
	C328.856354,583.979919 328.643280,584.034729 328.247925,584.085022 
	C328.148773,583.874939 328.241638,583.673828 328.426147,583.331543 
z"/>
<path fill="#000000" opacity="1.000000" stroke="none" 
	d="
M549.818481,329.129120 
	C549.621460,329.260101 549.419006,329.411499 549.216553,329.562927 
	C549.434814,329.532074 549.653015,329.501190 549.876343,329.318420 
	C549.881409,329.166504 549.813049,329.149536 549.818481,329.129120 
z"/>
<path fill="#000000" opacity="1.000000" stroke="none" 
	d="
M540.820068,320.128967 
	C540.622314,320.260101 540.419189,320.411682 540.216064,320.563232 
	C540.434937,320.532349 540.653870,320.501434 540.877808,320.318359 
	C540.882812,320.166199 540.814575,320.149353 540.820068,320.128967 
z"/>
<path fill="#000000" opacity="1.000000" stroke="none" 
	d="
M515.881226,302.517761 
	C515.699951,302.347961 515.437439,302.077576 515.333618,301.903778 
	C515.542358,302.109131 515.644897,302.248077 515.881226,302.517761 
z"/>
<path fill="#000000" opacity="1.000000" stroke="none" 
	d="
M584.425293,216.331390 
	C584.693115,216.430893 584.879211,216.676117 585.065308,216.921326 
	C584.853027,216.977203 584.640686,217.033081 584.247009,217.084686 
	C584.148560,216.874863 584.241211,216.673752 584.425293,216.331390 
z"/>
<path fill="#000000" opacity="1.000000" stroke="none" 
	d="
M572.424561,208.329773 
	C572.639526,208.529312 572.773438,208.875244 572.907349,209.221161 
	C572.750854,209.178452 572.594421,209.135742 572.252991,209.087372 
	C572.150208,208.875488 572.242065,208.673630 572.424561,208.329773 
z"/>
<path fill="#000000" opacity="1.000000" stroke="none" 
	d="
M734.820496,168.126862 
	C734.622314,168.258804 734.418518,168.411102 734.214783,168.563416 
	C734.434509,168.532181 734.654175,168.500961 734.878540,168.316864 
	C734.883118,168.163971 734.814941,168.147217 734.820496,168.126862 
z"/>
<path fill="#000000" opacity="1.000000" stroke="none" 
	d="
M121.128983,168.179504 
	C121.260208,168.377350 121.411804,168.580688 121.563400,168.784027 
	C121.532455,168.564941 121.501518,168.345871 121.318375,168.121719 
	C121.166176,168.116653 121.149361,168.184982 121.128983,168.179504 
z"/>
<path fill="#000000" opacity="1.000000" stroke="none" 
	d="
M726.823792,159.125305 
	C726.621826,159.259430 726.413757,159.413788 726.205750,159.568161 
	C726.430115,159.536392 726.654419,159.504623 726.882568,159.316803 
	C726.886292,159.160736 726.817749,159.145538 726.823792,159.125305 
z"/>
<path fill="#000000" opacity="1.000000" stroke="none" 
	d="
M723.820557,156.127869 
	C723.622498,156.259460 723.418945,156.411423 723.215454,156.563416 
	C723.434814,156.532318 723.654236,156.501221 723.878418,156.317581 
	C723.883301,156.165039 723.815063,156.148254 723.820557,156.127869 
z"/>
<path fill="#000000" opacity="1.000000" stroke="none" 
	d="
M695.825134,130.142029 
	C695.627625,130.269165 695.424561,130.416840 695.221558,130.564514 
	C695.439514,130.536560 695.657410,130.508575 695.882324,130.330170 
	C695.889282,130.179749 695.819580,130.162582 695.825134,130.142029 
z"/>
<path fill="#000000" opacity="1.000000" stroke="none" 
	d="
M678.876770,117.403152 
	C678.809143,117.106026 678.678223,116.655067 678.423584,115.978470 
	C678.471069,116.251656 678.642273,116.750481 678.876770,117.403152 
z"/>
<path fill="#000000" opacity="1.000000" stroke="none" 
	d="
M656.572388,101.669571 
	C656.301575,101.567673 656.112854,101.319809 655.924194,101.071945 
	C656.138672,101.017830 656.353149,100.963715 656.750793,100.914314 
	C656.850464,101.125023 656.757263,101.326553 656.572388,101.669571 
z"/>
<path fill="#000000" opacity="1.000000" stroke="none" 
	d="
M646.004395,93.451767 
	C645.798584,93.416481 645.562439,93.389305 645.326233,93.362137 
	C645.462891,93.482330 645.599609,93.602516 645.885742,93.638359 
	C646.035217,93.554016 645.973938,93.459877 646.004395,93.451767 
z"/>
</svg>